<svg xmlns="http://www.w3.org/2000/svg" xmlns:xlink="http://www.w3.org/1999/xlink" width="500" zoomAndPan="magnify" viewBox="0 0 375 374.999991" height="500" preserveAspectRatio="xMidYMid meet" version="1.0"><defs><clipPath id="451b53e2d4"><path d="M 39 17 L 336 17 L 336 355 L 39 355 Z M 39 17 " clip-rule="nonzero"/></clipPath><clipPath id="20a6648044"><path d="M 186.128906 17.316406 C 187.480469 17.3125 188.832031 17.292969 190.183594 17.277344 C 204.898438 17.175781 219.035156 21.007812 232.128906 27.621094 L 233.460938 28.292969 C 244.992188 34.191406 255.355469 42.109375 263.199219 52.480469 L 264.570312 54.25 C 282.003906 77.308594 284 106.371094 285.941406 134.183594 C 289.214844 180.953125 299.277344 222.953125 326.148438 262.113281 C 336.269531 276.867188 336.269531 276.867188 335.511719 285.234375 C 334.378906 290.085938 331.523438 294.125 327.363281 296.871094 C 318.195312 301.75 309.335938 299.691406 299.832031 297.007812 C 292.75 295.035156 285.417969 294.066406 278.453125 297.097656 L 276.988281 297.726562 C 267.355469 302.417969 258.875 312.714844 252.503906 321.140625 C 251.136719 322.753906 249.621094 324.050781 248.011719 325.417969 C 246.867188 326.429688 245.824219 327.488281 244.769531 328.59375 C 234.109375 339.355469 219.628906 348.023438 205.011719 351.894531 L 203.871094 352.199219 C 185.386719 356.8125 166.011719 352.449219 149.648438 343.421875 L 148.113281 342.582031 C 141.671875 338.875 135.867188 334.363281 130.441406 329.296875 C 129.703125 328.660156 128.960938 328.023438 128.214844 327.390625 C 123.71875 323.46875 119.632812 319.140625 115.753906 314.609375 C 104.246094 301.199219 104.246094 301.199219 88.070312 295.402344 L 86.785156 295.292969 C 80.972656 295.023438 75.398438 296.804688 69.84375 298.316406 C 62.636719 300.25 55.6875 301.070312 48.78125 297.480469 C 44.121094 294.5 41.230469 291.570312 39.664062 286.152344 C 38.609375 277.304688 43.171875 271.054688 48.070312 264.050781 C 59.167969 248.121094 67.988281 231.769531 74.511719 213.484375 L 75.054688 212 C 81.007812 195.652344 84.273438 178.136719 86.351562 160.898438 L 86.496094 159.699219 C 87.726562 149.476562 88.511719 139.222656 89.300781 128.957031 C 91.832031 95.902344 96.808594 63.347656 123.375 40.453125 C 129.976562 34.90625 137.175781 30.238281 144.984375 26.582031 C 146.328125 25.972656 146.328125 25.972656 147.386719 24.796875 C 148.4375 24.414062 148.4375 24.414062 149.753906 24.054688 C 152.203125 23.363281 154.589844 22.566406 156.992188 21.726562 C 160.214844 20.625 163.453125 19.753906 166.773438 19.007812 L 168 18.726562 C 174 17.433594 180.011719 17.332031 186.128906 17.316406 M 212.921875 93.71875 C 208.671875 99.515625 207.632812 105.324219 208.402344 112.363281 C 209.746094 118.082031 213.242188 122.746094 218.113281 125.992188 C 223.140625 127.144531 228.050781 127.230469 232.589844 124.566406 C 237.296875 121.109375 239.667969 116.375 240.601562 110.667969 C 241.125 104.160156 239.609375 98.324219 235.519531 93.15625 C 232.519531 90.421875 229.34375 89.128906 225.351562 88.636719 L 223.9375 88.457031 C 219.679688 88.992188 215.957031 90.660156 212.921875 93.71875 M 138.914062 93.15625 C 134.785156 97.929688 133.480469 102.953125 133.632812 109.179688 C 134.128906 114.363281 135.652344 119.410156 139.480469 123.097656 C 143.996094 126.515625 147.992188 126.914062 153.601562 126.484375 C 157.40625 125.566406 160.296875 123.367188 162.640625 120.273438 C 165.867188 114.757812 166.875 108.578125 165.289062 102.40625 C 163.78125 97.347656 161.300781 92.738281 156.535156 90.082031 C 150.171875 87.3125 144.042969 88.707031 138.914062 93.15625 M 166.195312 159.328125 C 162.464844 164 159.753906 169.144531 158.6875 175.070312 L 158.425781 176.414062 C 157.140625 185.113281 159.902344 193.316406 164.988281 200.28125 C 165.695312 201.1875 166.410156 202.082031 167.144531 202.964844 L 168.222656 204.269531 L 169.203125 205.40625 C 171.535156 209.285156 170.132812 213.328125 169.144531 217.4375 L 168.6875 219.402344 C 168.207031 221.46875 167.722656 223.535156 167.230469 225.597656 C 166.75 227.660156 166.265625 229.722656 165.789062 231.785156 C 165.488281 233.066406 165.1875 234.347656 164.882812 235.628906 C 163.03125 242.488281 163.03125 242.488281 164.902344 249.078125 C 167.335938 251.652344 170.316406 252.332031 173.75 252.570312 C 175.476562 252.613281 177.207031 252.628906 178.933594 252.617188 L 180.855469 252.621094 C 182.1875 252.621094 183.523438 252.621094 184.859375 252.613281 C 186.890625 252.609375 188.921875 252.613281 190.953125 252.621094 C 192.253906 252.621094 193.558594 252.621094 194.859375 252.617188 L 196.683594 252.625 C 203.234375 252.636719 203.234375 252.636719 208.96875 249.855469 L 209.917969 249.089844 C 211.710938 246.328125 211.28125 243.214844 210.667969 240.144531 C 210.386719 238.882812 210.097656 237.625 209.796875 236.367188 L 209.339844 234.335938 C 208.859375 232.195312 208.367188 230.0625 207.871094 227.929688 C 207.378906 225.796875 206.894531 223.660156 206.410156 221.527344 C 206.109375 220.203125 205.804688 218.878906 205.496094 217.554688 C 203.566406 209.035156 203.566406 209.035156 205.292969 205.578125 C 206.085938 204.628906 206.890625 203.691406 207.746094 202.804688 C 213.394531 196.839844 216.238281 189.113281 216.488281 180.898438 C 216.113281 172.152344 212.753906 163.558594 206.328125 157.492188 C 194.039062 147.570312 177.273438 147.453125 166.195312 159.328125 " clip-rule="nonzero"/></clipPath><linearGradient x1="0" gradientTransform="matrix(296.291983, 0, 0, 336.782892, 39.510765, 17.27506)" y1="-0.000294131" x2="0" gradientUnits="userSpaceOnUse" y2="1.008177" id="b1de842ddc"><stop stop-opacity="1" stop-color="rgb(28.62854%, 96.859741%, 99.609375%)" offset="0"/><stop stop-opacity="1" stop-color="rgb(28.527832%, 96.699524%, 99.60022%)" offset="0.0078125"/><stop stop-opacity="1" stop-color="rgb(28.321838%, 96.374512%, 99.581909%)" offset="0.015625"/><stop stop-opacity="1" stop-color="rgb(28.111267%, 96.044922%, 99.563599%)" offset="0.0234375"/><stop stop-opacity="1" stop-color="rgb(27.900696%, 95.713806%, 99.545288%)" offset="0.03125"/><stop stop-opacity="1" stop-color="rgb(27.69165%, 95.38269%, 99.525452%)" offset="0.0390625"/><stop stop-opacity="1" stop-color="rgb(27.481079%, 95.053101%, 99.507141%)" offset="0.046875"/><stop stop-opacity="1" stop-color="rgb(27.270508%, 94.721985%, 99.488831%)" offset="0.0546875"/><stop stop-opacity="1" stop-color="rgb(27.061462%, 94.392395%, 99.47052%)" offset="0.0625"/><stop stop-opacity="1" stop-color="rgb(26.850891%, 94.061279%, 99.452209%)" offset="0.0703125"/><stop stop-opacity="1" stop-color="rgb(26.64032%, 93.730164%, 99.433899%)" offset="0.078125"/><stop stop-opacity="1" stop-color="rgb(26.431274%, 93.400574%, 99.414062%)" offset="0.0859375"/><stop stop-opacity="1" stop-color="rgb(26.220703%, 93.069458%, 99.395752%)" offset="0.09375"/><stop stop-opacity="1" stop-color="rgb(26.010132%, 92.738342%, 99.377441%)" offset="0.101562"/><stop stop-opacity="1" stop-color="rgb(25.799561%, 92.408752%, 99.359131%)" offset="0.109375"/><stop stop-opacity="1" stop-color="rgb(25.590515%, 92.077637%, 99.34082%)" offset="0.117188"/><stop stop-opacity="1" stop-color="rgb(25.379944%, 91.746521%, 99.320984%)" offset="0.125"/><stop stop-opacity="1" stop-color="rgb(25.169373%, 91.416931%, 99.302673%)" offset="0.132812"/><stop stop-opacity="1" stop-color="rgb(24.960327%, 91.085815%, 99.284363%)" offset="0.140625"/><stop stop-opacity="1" stop-color="rgb(24.749756%, 90.7547%, 99.266052%)" offset="0.148438"/><stop stop-opacity="1" stop-color="rgb(24.539185%, 90.42511%, 99.247742%)" offset="0.15625"/><stop stop-opacity="1" stop-color="rgb(24.328613%, 90.093994%, 99.227905%)" offset="0.164062"/><stop stop-opacity="1" stop-color="rgb(24.119568%, 89.762878%, 99.209595%)" offset="0.171875"/><stop stop-opacity="1" stop-color="rgb(23.908997%, 89.433289%, 99.191284%)" offset="0.179688"/><stop stop-opacity="1" stop-color="rgb(23.698425%, 89.102173%, 99.172974%)" offset="0.1875"/><stop stop-opacity="1" stop-color="rgb(23.48938%, 88.771057%, 99.154663%)" offset="0.195312"/><stop stop-opacity="1" stop-color="rgb(23.278809%, 88.441467%, 99.136353%)" offset="0.203125"/><stop stop-opacity="1" stop-color="rgb(23.068237%, 88.110352%, 99.116516%)" offset="0.210938"/><stop stop-opacity="1" stop-color="rgb(22.859192%, 87.779236%, 99.098206%)" offset="0.21875"/><stop stop-opacity="1" stop-color="rgb(22.648621%, 87.449646%, 99.079895%)" offset="0.226562"/><stop stop-opacity="1" stop-color="rgb(22.438049%, 87.11853%, 99.061584%)" offset="0.234375"/><stop stop-opacity="1" stop-color="rgb(22.227478%, 86.787415%, 99.043274%)" offset="0.242188"/><stop stop-opacity="1" stop-color="rgb(22.018433%, 86.457825%, 99.023438%)" offset="0.25"/><stop stop-opacity="1" stop-color="rgb(21.807861%, 86.126709%, 99.005127%)" offset="0.257812"/><stop stop-opacity="1" stop-color="rgb(21.59729%, 85.795593%, 98.986816%)" offset="0.265625"/><stop stop-opacity="1" stop-color="rgb(21.388245%, 85.466003%, 98.968506%)" offset="0.273437"/><stop stop-opacity="1" stop-color="rgb(21.177673%, 85.134888%, 98.950195%)" offset="0.28125"/><stop stop-opacity="1" stop-color="rgb(20.967102%, 84.805298%, 98.930359%)" offset="0.289062"/><stop stop-opacity="1" stop-color="rgb(20.756531%, 84.474182%, 98.912048%)" offset="0.296875"/><stop stop-opacity="1" stop-color="rgb(20.547485%, 84.143066%, 98.893738%)" offset="0.304688"/><stop stop-opacity="1" stop-color="rgb(20.336914%, 83.813477%, 98.875427%)" offset="0.3125"/><stop stop-opacity="1" stop-color="rgb(20.126343%, 83.482361%, 98.857117%)" offset="0.320312"/><stop stop-opacity="1" stop-color="rgb(19.917297%, 83.151245%, 98.838806%)" offset="0.328125"/><stop stop-opacity="1" stop-color="rgb(19.706726%, 82.821655%, 98.81897%)" offset="0.335937"/><stop stop-opacity="1" stop-color="rgb(19.496155%, 82.49054%, 98.800659%)" offset="0.34375"/><stop stop-opacity="1" stop-color="rgb(19.285583%, 82.159424%, 98.782349%)" offset="0.351562"/><stop stop-opacity="1" stop-color="rgb(19.076538%, 81.829834%, 98.764038%)" offset="0.359375"/><stop stop-opacity="1" stop-color="rgb(18.865967%, 81.498718%, 98.745728%)" offset="0.367187"/><stop stop-opacity="1" stop-color="rgb(18.655396%, 81.167603%, 98.725891%)" offset="0.375"/><stop stop-opacity="1" stop-color="rgb(18.44635%, 80.838013%, 98.707581%)" offset="0.382812"/><stop stop-opacity="1" stop-color="rgb(18.235779%, 80.506897%, 98.68927%)" offset="0.390625"/><stop stop-opacity="1" stop-color="rgb(18.025208%, 80.175781%, 98.670959%)" offset="0.398437"/><stop stop-opacity="1" stop-color="rgb(17.816162%, 79.846191%, 98.652649%)" offset="0.40625"/><stop stop-opacity="1" stop-color="rgb(17.605591%, 79.515076%, 98.634338%)" offset="0.414062"/><stop stop-opacity="1" stop-color="rgb(17.39502%, 79.18396%, 98.614502%)" offset="0.421875"/><stop stop-opacity="1" stop-color="rgb(17.184448%, 78.85437%, 98.596191%)" offset="0.429687"/><stop stop-opacity="1" stop-color="rgb(16.975403%, 78.523254%, 98.577881%)" offset="0.4375"/><stop stop-opacity="1" stop-color="rgb(16.764832%, 78.192139%, 98.55957%)" offset="0.445312"/><stop stop-opacity="1" stop-color="rgb(16.55426%, 77.862549%, 98.54126%)" offset="0.453125"/><stop stop-opacity="1" stop-color="rgb(16.345215%, 77.531433%, 98.521423%)" offset="0.460937"/><stop stop-opacity="1" stop-color="rgb(16.134644%, 77.200317%, 98.503113%)" offset="0.46875"/><stop stop-opacity="1" stop-color="rgb(15.924072%, 76.870728%, 98.484802%)" offset="0.476562"/><stop stop-opacity="1" stop-color="rgb(15.713501%, 76.539612%, 98.466492%)" offset="0.484375"/><stop stop-opacity="1" stop-color="rgb(15.504456%, 76.208496%, 98.448181%)" offset="0.492187"/><stop stop-opacity="1" stop-color="rgb(15.293884%, 75.878906%, 98.428345%)" offset="0.5"/><stop stop-opacity="1" stop-color="rgb(15.083313%, 75.547791%, 98.410034%)" offset="0.507812"/><stop stop-opacity="1" stop-color="rgb(14.874268%, 75.218201%, 98.391724%)" offset="0.515625"/><stop stop-opacity="1" stop-color="rgb(14.663696%, 74.887085%, 98.373413%)" offset="0.523438"/><stop stop-opacity="1" stop-color="rgb(14.453125%, 74.555969%, 98.355103%)" offset="0.53125"/><stop stop-opacity="1" stop-color="rgb(14.24408%, 74.226379%, 98.336792%)" offset="0.539062"/><stop stop-opacity="1" stop-color="rgb(14.033508%, 73.895264%, 98.316956%)" offset="0.546875"/><stop stop-opacity="1" stop-color="rgb(13.822937%, 73.564148%, 98.298645%)" offset="0.554688"/><stop stop-opacity="1" stop-color="rgb(13.612366%, 73.234558%, 98.280334%)" offset="0.5625"/><stop stop-opacity="1" stop-color="rgb(13.40332%, 72.903442%, 98.262024%)" offset="0.570312"/><stop stop-opacity="1" stop-color="rgb(13.192749%, 72.572327%, 98.243713%)" offset="0.578125"/><stop stop-opacity="1" stop-color="rgb(12.982178%, 72.242737%, 98.223877%)" offset="0.585938"/><stop stop-opacity="1" stop-color="rgb(12.773132%, 71.911621%, 98.205566%)" offset="0.59375"/><stop stop-opacity="1" stop-color="rgb(12.562561%, 71.580505%, 98.187256%)" offset="0.601562"/><stop stop-opacity="1" stop-color="rgb(12.35199%, 71.250916%, 98.168945%)" offset="0.609375"/><stop stop-opacity="1" stop-color="rgb(12.141418%, 70.9198%, 98.150635%)" offset="0.617187"/><stop stop-opacity="1" stop-color="rgb(11.932373%, 70.588684%, 98.132324%)" offset="0.625"/><stop stop-opacity="1" stop-color="rgb(11.721802%, 70.259094%, 98.112488%)" offset="0.632812"/><stop stop-opacity="1" stop-color="rgb(11.51123%, 69.927979%, 98.094177%)" offset="0.640625"/><stop stop-opacity="1" stop-color="rgb(11.302185%, 69.596863%, 98.075867%)" offset="0.648437"/><stop stop-opacity="1" stop-color="rgb(11.091614%, 69.267273%, 98.057556%)" offset="0.65625"/><stop stop-opacity="1" stop-color="rgb(10.881042%, 68.936157%, 98.039246%)" offset="0.664062"/><stop stop-opacity="1" stop-color="rgb(10.670471%, 68.605042%, 98.019409%)" offset="0.671875"/><stop stop-opacity="1" stop-color="rgb(10.461426%, 68.275452%, 98.001099%)" offset="0.679687"/><stop stop-opacity="1" stop-color="rgb(10.250854%, 67.944336%, 97.982788%)" offset="0.6875"/><stop stop-opacity="1" stop-color="rgb(10.040283%, 67.61322%, 97.964478%)" offset="0.695312"/><stop stop-opacity="1" stop-color="rgb(9.831238%, 67.28363%, 97.946167%)" offset="0.703125"/><stop stop-opacity="1" stop-color="rgb(9.620667%, 66.952515%, 97.926331%)" offset="0.710937"/><stop stop-opacity="1" stop-color="rgb(9.410095%, 66.621399%, 97.90802%)" offset="0.71875"/><stop stop-opacity="1" stop-color="rgb(9.20105%, 66.291809%, 97.889709%)" offset="0.726562"/><stop stop-opacity="1" stop-color="rgb(8.990479%, 65.960693%, 97.871399%)" offset="0.734375"/><stop stop-opacity="1" stop-color="rgb(8.779907%, 65.631104%, 97.853088%)" offset="0.742187"/><stop stop-opacity="1" stop-color="rgb(8.569336%, 65.299988%, 97.834778%)" offset="0.75"/><stop stop-opacity="1" stop-color="rgb(8.360291%, 64.968872%, 97.814941%)" offset="0.757812"/><stop stop-opacity="1" stop-color="rgb(8.149719%, 64.639282%, 97.796631%)" offset="0.765625"/><stop stop-opacity="1" stop-color="rgb(7.939148%, 64.308167%, 97.77832%)" offset="0.773438"/><stop stop-opacity="1" stop-color="rgb(7.730103%, 63.977051%, 97.76001%)" offset="0.78125"/><stop stop-opacity="1" stop-color="rgb(7.519531%, 63.647461%, 97.741699%)" offset="0.789062"/><stop stop-opacity="1" stop-color="rgb(7.30896%, 63.316345%, 97.721863%)" offset="0.796875"/><stop stop-opacity="1" stop-color="rgb(7.098389%, 62.985229%, 97.703552%)" offset="0.804688"/><stop stop-opacity="1" stop-color="rgb(6.889343%, 62.65564%, 97.685242%)" offset="0.8125"/><stop stop-opacity="1" stop-color="rgb(6.678772%, 62.324524%, 97.666931%)" offset="0.820312"/><stop stop-opacity="1" stop-color="rgb(6.468201%, 61.993408%, 97.648621%)" offset="0.828125"/><stop stop-opacity="1" stop-color="rgb(6.259155%, 61.663818%, 97.63031%)" offset="0.835938"/><stop stop-opacity="1" stop-color="rgb(6.048584%, 61.332703%, 97.610474%)" offset="0.84375"/><stop stop-opacity="1" stop-color="rgb(5.838013%, 61.001587%, 97.592163%)" offset="0.851562"/><stop stop-opacity="1" stop-color="rgb(5.628967%, 60.671997%, 97.573853%)" offset="0.859375"/><stop stop-opacity="1" stop-color="rgb(5.418396%, 60.340881%, 97.555542%)" offset="0.867187"/><stop stop-opacity="1" stop-color="rgb(5.207825%, 60.009766%, 97.537231%)" offset="0.875"/><stop stop-opacity="1" stop-color="rgb(4.997253%, 59.680176%, 97.517395%)" offset="0.882812"/><stop stop-opacity="1" stop-color="rgb(4.788208%, 59.34906%, 97.499084%)" offset="0.890625"/><stop stop-opacity="1" stop-color="rgb(4.577637%, 59.017944%, 97.480774%)" offset="0.898437"/><stop stop-opacity="1" stop-color="rgb(4.367065%, 58.688354%, 97.462463%)" offset="0.90625"/><stop stop-opacity="1" stop-color="rgb(4.15802%, 58.357239%, 97.444153%)" offset="0.914062"/><stop stop-opacity="1" stop-color="rgb(3.947449%, 58.026123%, 97.424316%)" offset="0.921875"/><stop stop-opacity="1" stop-color="rgb(3.736877%, 57.696533%, 97.406006%)" offset="0.929687"/><stop stop-opacity="1" stop-color="rgb(3.526306%, 57.365417%, 97.387695%)" offset="0.9375"/><stop stop-opacity="1" stop-color="rgb(3.317261%, 57.034302%, 97.369385%)" offset="0.945312"/><stop stop-opacity="1" stop-color="rgb(3.106689%, 56.704712%, 97.351074%)" offset="0.953125"/><stop stop-opacity="1" stop-color="rgb(2.896118%, 56.373596%, 97.332764%)" offset="0.960937"/><stop stop-opacity="1" stop-color="rgb(2.687073%, 56.044006%, 97.312927%)" offset="0.96875"/><stop stop-opacity="1" stop-color="rgb(2.476501%, 55.712891%, 97.294617%)" offset="0.976562"/><stop stop-opacity="1" stop-color="rgb(2.26593%, 55.381775%, 97.276306%)" offset="0.984375"/><stop stop-opacity="1" stop-color="rgb(2.059937%, 55.058289%, 97.257996%)" offset="1"/></linearGradient></defs><path fill="#000000" d="M 186.128906 25.316406 C 187.480469 25.3125 188.832031 25.292969 190.183594 25.277344 C 204.898438 25.175781 219.035156 29.007812 232.128906 35.621094 L 233.460938 36.292969 C 244.992188 42.191406 255.355469 50.109375 263.199219 60.480469 L 264.570312 62.25 C 282.003906 85.308594 284 114.371094 285.941406 142.183594 C 289.214844 188.953125 299.277344 230.953125 326.148438 270.113281 C 336.269531 284.867188 336.269531 284.867188 335.511719 293.234375 C 334.378906 298.085938 331.523438 302.125 327.363281 304.871094 C 318.195312 309.75 309.335938 307.691406 299.832031 305.007812 C 292.75 303.035156 285.417969 302.066406 278.453125 305.097656 L 276.988281 305.726562 C 267.355469 310.417969 258.875 320.714844 252.503906 329.140625 C 251.136719 330.753906 249.621094 332.050781 248.011719 333.417969 C 246.867188 334.429688 245.824219 335.488281 244.769531 336.59375 C 234.109375 347.355469 219.628906 356.023438 205.011719 359.894531 L 203.871094 360.199219 C 185.386719 364.8125 166.011719 360.449219 149.648438 351.421875 L 148.113281 350.582031 C 141.671875 346.875 135.867188 342.363281 130.441406 337.296875 C 129.703125 336.660156 128.960938 336.023438 128.214844 335.390625 C 123.71875 331.46875 119.632812 327.140625 115.753906 322.609375 C 104.246094 309.199219 104.246094 309.199219 88.070312 303.402344 L 86.785156 303.292969 C 80.972656 303.023438 75.398438 304.804688 69.84375 306.316406 C 62.636719 308.25 55.6875 309.070312 48.78125 305.480469 C 44.121094 302.5 41.230469 299.570312 39.664062 294.152344 C 38.609375 285.304688 43.171875 279.054688 48.070312 272.050781 C 59.167969 256.121094 67.988281 239.769531 74.511719 221.484375 L 75.054688 220 C 81.007812 203.652344 84.273438 186.136719 86.351562 168.898438 L 86.496094 167.699219 C 87.726562 157.476562 88.511719 147.222656 89.300781 136.957031 C 91.832031 103.902344 96.808594 71.347656 123.375 48.453125 C 129.976562 42.90625 137.175781 38.238281 144.984375 34.582031 C 146.328125 33.972656 146.328125 33.972656 147.386719 32.796875 C 148.4375 32.414062 148.4375 32.414062 149.753906 32.054688 C 152.203125 31.363281 154.589844 30.566406 156.992188 29.726562 C 160.214844 28.625 163.453125 27.753906 166.773438 27.007812 L 168 26.726562 C 174 25.433594 180.011719 25.332031 186.128906 25.316406 M 212.921875 101.71875 C 208.671875 107.515625 207.632812 113.324219 208.402344 120.363281 C 209.746094 126.082031 213.242188 130.746094 218.113281 133.992188 C 223.140625 135.144531 228.050781 135.230469 232.589844 132.566406 C 237.296875 129.109375 239.667969 124.375 240.601562 118.667969 C 241.125 112.160156 239.609375 106.324219 235.519531 101.15625 C 232.519531 98.421875 229.34375 97.128906 225.351562 96.636719 L 223.9375 96.457031 C 219.679688 96.992188 215.957031 98.660156 212.921875 101.71875 M 138.914062 101.15625 C 134.785156 105.929688 133.480469 110.953125 133.632812 117.179688 C 134.128906 122.363281 135.652344 127.410156 139.480469 131.097656 C 143.996094 134.515625 147.992188 134.914062 153.601562 134.484375 C 157.40625 133.566406 160.296875 131.367188 162.640625 128.273438 C 165.867188 122.757812 166.875 116.578125 165.289062 110.40625 C 163.78125 105.347656 161.300781 100.738281 156.535156 98.082031 C 150.171875 95.3125 144.042969 96.707031 138.914062 101.15625 M 166.195312 167.328125 C 162.464844 172 159.753906 177.144531 158.6875 183.070312 L 158.425781 184.414062 C 157.140625 193.113281 159.902344 201.316406 164.988281 208.28125 C 165.695312 209.1875 166.410156 210.082031 167.144531 210.964844 L 168.222656 212.269531 L 169.203125 213.40625 C 171.535156 217.285156 170.132812 221.328125 169.144531 225.4375 L 168.6875 227.402344 C 168.207031 229.46875 167.722656 231.535156 167.230469 233.597656 C 166.75 235.660156 166.265625 237.722656 165.789062 239.785156 C 165.488281 241.066406 165.1875 242.347656 164.882812 243.628906 C 163.03125 250.488281 163.03125 250.488281 164.902344 257.078125 C 167.335938 259.652344 170.316406 260.332031 173.75 260.570312 C 175.476562 260.613281 177.207031 260.628906 178.933594 260.617188 L 180.855469 260.621094 C 182.1875 260.621094 183.523438 260.621094 184.859375 260.613281 C 186.890625 260.609375 188.921875 260.613281 190.953125 260.621094 C 192.253906 260.621094 193.558594 260.621094 194.859375 260.617188 L 196.683594 260.625 C 203.234375 260.636719 203.234375 260.636719 208.96875 257.855469 L 209.917969 257.089844 C 211.710938 254.328125 211.28125 251.214844 210.667969 248.144531 C 210.386719 246.882812 210.097656 245.625 209.796875 244.367188 L 209.339844 242.335938 C 208.859375 240.195312 208.367188 238.0625 207.871094 235.929688 C 207.378906 233.796875 206.894531 231.660156 206.410156 229.527344 C 206.109375 228.203125 205.804688 226.878906 205.496094 225.554688 C 203.566406 217.035156 203.566406 217.035156 205.292969 213.578125 C 206.085938 212.628906 206.890625 211.691406 207.746094 210.804688 C 213.394531 204.839844 216.238281 197.113281 216.488281 188.898438 C 216.113281 180.152344 212.753906 171.558594 206.328125 165.492188 C 194.039062 155.570312 177.273438 155.453125 166.195312 167.328125 " fill-opacity="0.2" fill-rule="nonzero"/><g clip-path="url(#451b53e2d4)"><g clip-path="url(#20a6648044)"><path fill="url(#b1de842ddc)" d="M 38.609375 17.175781 L 38.609375 356.8125 L 336.269531 356.8125 L 336.269531 17.175781 Z M 38.609375 17.175781 " fill-rule="nonzero"/></g></g><path fill="#ffffff" d="M 284.667969 295.402344 L 286.363281 295.96875 Z M 85.246094 295.402344 L 86.941406 295.96875 Z M 225.351562 124.792969 L 225.914062 125.921875 L 224.785156 125.355469 Z M 173.941406 353.027344 L 175.070312 353.589844 Z M 291.449219 295.402344 L 292.578125 295.96875 Z M 190.890625 251.335938 L 192.019531 251.902344 Z M 185.238281 150.777344 L 186.371094 151.34375 Z M 267.71875 57.5625 L 268.851562 58.128906 Z M 267.71875 57.5625 " fill-opacity="1" fill-rule="nonzero"/></svg>