<svg xmlns="http://www.w3.org/2000/svg" xmlns:xlink="http://www.w3.org/1999/xlink" width="500" zoomAndPan="magnify" viewBox="0 0 375 374.999991" height="500" preserveAspectRatio="xMidYMid meet" version="1.0"><path fill="#000000" d="M 186.128906 17.316406 C 187.480469 17.3125 188.832031 17.292969 190.183594 17.277344 C 204.898438 17.175781 219.035156 21.007812 232.128906 27.621094 L 233.460938 28.292969 C 244.992188 34.191406 255.355469 42.109375 263.199219 52.480469 L 264.570312 54.25 C 282.003906 77.308594 284 106.371094 285.941406 134.183594 C 289.214844 180.953125 299.277344 222.953125 326.148438 262.113281 C 336.269531 276.867188 336.269531 276.867188 335.511719 285.234375 C 334.378906 290.085938 331.523438 294.125 327.363281 296.871094 C 318.195312 301.75 309.335938 299.691406 299.832031 297.007812 C 292.75 295.035156 285.417969 294.066406 278.453125 297.097656 L 276.988281 297.726562 C 267.355469 302.417969 258.875 312.714844 252.503906 321.140625 C 251.136719 322.753906 249.621094 324.050781 248.011719 325.417969 C 246.867188 326.429688 245.824219 327.488281 244.769531 328.59375 C 234.109375 339.355469 219.628906 348.023438 205.011719 351.894531 L 203.871094 352.199219 C 185.386719 356.8125 166.011719 352.449219 149.648438 343.421875 L 148.113281 342.582031 C 141.671875 338.875 135.867188 334.363281 130.441406 329.296875 C 129.703125 328.660156 128.960938 328.023438 128.214844 327.390625 C 123.71875 323.46875 119.632812 319.140625 115.753906 314.609375 C 104.246094 301.199219 104.246094 301.199219 88.070312 295.402344 L 86.785156 295.292969 C 80.972656 295.023438 75.398438 296.804688 69.84375 298.316406 C 62.636719 300.25 55.6875 301.070312 48.78125 297.480469 C 44.121094 294.5 41.230469 291.570312 39.664062 286.152344 C 38.609375 277.304688 43.171875 271.054688 48.070312 264.050781 C 59.167969 248.121094 67.988281 231.769531 74.511719 213.484375 L 75.054688 212 C 81.007812 195.652344 84.273438 178.136719 86.351562 160.898438 L 86.496094 159.699219 C 87.726562 149.476562 88.511719 139.222656 89.300781 128.957031 C 91.832031 95.902344 96.808594 63.347656 123.375 40.453125 C 129.976562 34.90625 137.175781 30.238281 144.984375 26.582031 C 146.328125 25.972656 146.328125 25.972656 147.386719 24.796875 C 148.4375 24.414062 148.4375 24.414062 149.753906 24.054688 C 152.203125 23.363281 154.589844 22.566406 156.992188 21.726562 C 160.214844 20.625 163.453125 19.753906 166.773438 19.007812 L 168 18.726562 C 174 17.433594 180.011719 17.332031 186.128906 17.316406 M 212.921875 93.71875 C 208.671875 99.515625 207.632812 105.324219 208.402344 112.363281 C 209.746094 118.082031 213.242188 122.746094 218.113281 125.992188 C 223.140625 127.144531 228.050781 127.230469 232.589844 124.566406 C 237.296875 121.109375 239.667969 116.375 240.601562 110.667969 C 241.125 104.160156 239.609375 98.324219 235.519531 93.15625 C 232.519531 90.421875 229.34375 89.128906 225.351562 88.636719 L 223.9375 88.457031 C 219.679688 88.992188 215.957031 90.660156 212.921875 93.71875 M 138.914062 93.15625 C 134.785156 97.929688 133.480469 102.953125 133.632812 109.179688 C 134.128906 114.363281 135.652344 119.410156 139.480469 123.097656 C 143.996094 126.515625 147.992188 126.914062 153.601562 126.484375 C 157.40625 125.566406 160.296875 123.367188 162.640625 120.273438 C 165.867188 114.757812 166.875 108.578125 165.289062 102.40625 C 163.78125 97.347656 161.300781 92.738281 156.535156 90.082031 C 150.171875 87.3125 144.042969 88.707031 138.914062 93.15625 M 166.195312 159.328125 C 162.464844 164 159.753906 169.144531 158.6875 175.070312 L 158.425781 176.414062 C 157.140625 185.113281 159.902344 193.316406 164.988281 200.28125 C 165.695312 201.1875 166.410156 202.082031 167.144531 202.964844 L 168.222656 204.269531 L 169.203125 205.40625 C 171.535156 209.285156 170.132812 213.328125 169.144531 217.4375 L 168.6875 219.402344 C 168.207031 221.46875 167.722656 223.535156 167.230469 225.597656 C 166.75 227.660156 166.265625 229.722656 165.789062 231.785156 C 165.488281 233.066406 165.1875 234.347656 164.882812 235.628906 C 163.03125 242.488281 163.03125 242.488281 164.902344 249.078125 C 167.335938 251.652344 170.316406 252.332031 173.75 252.570312 C 175.476562 252.613281 177.207031 252.628906 178.933594 252.617188 L 180.855469 252.621094 C 182.1875 252.621094 183.523438 252.621094 184.859375 252.613281 C 186.890625 252.609375 188.921875 252.613281 190.953125 252.621094 C 192.253906 252.621094 193.558594 252.621094 194.859375 252.617188 L 196.683594 252.625 C 203.234375 252.636719 203.234375 252.636719 208.96875 249.855469 L 209.917969 249.089844 C 211.710938 246.328125 211.28125 243.214844 210.667969 240.144531 C 210.386719 238.882812 210.097656 237.625 209.796875 236.367188 L 209.339844 234.335938 C 208.859375 232.195312 208.367188 230.0625 207.871094 227.929688 C 207.378906 225.796875 206.894531 223.660156 206.410156 221.527344 C 206.109375 220.203125 205.804688 218.878906 205.496094 217.554688 C 203.566406 209.035156 203.566406 209.035156 205.292969 205.578125 C 206.085938 204.628906 206.890625 203.691406 207.746094 202.804688 C 213.394531 196.839844 216.238281 189.113281 216.488281 180.898438 C 216.113281 172.152344 212.753906 163.558594 206.328125 157.492188 C 194.039062 147.570312 177.273438 147.453125 166.195312 159.328125 " fill-opacity="1" fill-rule="nonzero"/><path fill="#000000" d="M 284.667969 295.402344 L 286.363281 295.96875 Z M 85.246094 295.402344 L 86.941406 295.96875 Z M 225.351562 124.792969 L 225.914062 125.921875 L 224.785156 125.355469 Z M 173.941406 353.027344 L 175.070312 353.589844 Z M 291.449219 295.402344 L 292.578125 295.96875 Z M 190.890625 251.335938 L 192.019531 251.902344 Z M 185.238281 150.777344 L 186.371094 151.34375 Z M 267.71875 57.5625 L 268.851562 58.128906 Z M 267.71875 57.5625 " fill-opacity="1" fill-rule="nonzero"/></svg>